<svg width="44" height="49" viewBox="0 0 44 49" fill="none" xmlns="http://www.w3.org/2000/svg">
<path d="M28.8904 16.3749C28.624 16.3749 28.3685 16.4807 28.1801 16.6691C27.9917 16.8574 27.8859 17.1129 27.8859 17.3793V18.1759C27.8901 18.4839 27.8122 18.7875 27.6599 19.0555C27.5078 19.3233 27.2867 19.5457 27.0199 19.6997L26.7937 19.8389C26.403 20.0792 25.901 20 25.5559 19.6978C25.3651 19.5309 25.1649 19.3749 24.9562 19.231C24.6762 19.0378 24.491 18.728 24.491 18.3878V17.3793C24.491 17.2474 24.465 17.1168 24.4147 16.9949C24.3642 16.8731 24.2901 16.7623 24.1969 16.6691C24.1036 16.5758 23.9929 16.5018 23.871 16.4514C23.749 16.4009 23.6184 16.3749 23.4865 16.3749C23.2201 16.3749 22.9646 16.4807 22.7762 16.6691C22.5878 16.8574 22.4819 17.1129 22.4819 17.3793C22.4819 17.8259 22.0695 18.1571 21.6232 18.1435C21.5746 18.142 21.526 18.1413 21.4774 18.1412C21.4287 18.141 21.3799 18.1416 21.3313 18.1428C20.8858 18.1547 20.4729 17.825 20.4729 17.3793C20.4729 17.1129 20.3669 16.8574 20.1785 16.6691C19.9901 16.4807 19.7346 16.3749 19.4682 16.3749C19.3333 16.3703 19.1991 16.3928 19.0731 16.4412C18.9472 16.4896 18.8323 16.5628 18.7353 16.6565C18.6384 16.7503 18.5613 16.8626 18.5086 16.9867C18.456 17.1109 18.4289 17.2444 18.429 17.3793V18.3937C18.429 18.7307 18.2471 19.038 17.9716 19.2323C17.7727 19.3727 17.5819 19.5238 17.4001 19.6857C17.0541 19.9931 16.5471 20.0763 16.1528 19.8338L15.9348 19.6997C15.668 19.5457 15.447 19.3233 15.2948 19.0555C15.1425 18.7875 15.0645 18.4839 15.0688 18.1759V17.3793C15.0598 17.1098 14.9464 16.8543 14.7525 16.6669C14.5585 16.4794 14.2993 16.3748 14.0296 16.3749C13.7632 16.3749 13.5076 16.4807 13.3192 16.6691C13.1309 16.8574 13.025 17.1129 13.025 17.3793V18.2798C13.0184 18.9089 13.1783 19.5286 13.4886 20.0761C13.7989 20.6235 14.2484 21.0791 14.7917 21.3969L15.078 21.5665C15.4502 21.787 15.5968 22.2466 15.4761 22.6619C15.3586 23.0663 15.0042 23.3709 14.583 23.3709H14.0296C13.8947 23.3707 13.7612 23.3979 13.637 23.4505C13.5128 23.5031 13.4005 23.5802 13.3067 23.6773C13.213 23.7741 13.1397 23.889 13.0913 24.0149C13.0429 24.1409 13.0204 24.2751 13.025 24.41C13.025 24.6763 13.1309 24.9317 13.3192 25.1201C13.5076 25.3085 13.7632 25.4143 14.0296 25.4143H14.583C15.0042 25.4143 15.3586 25.7189 15.4761 26.1233C15.5968 26.5386 15.4502 26.9982 15.078 27.2187L14.7917 27.3883C14.2508 27.7087 13.8032 28.1649 13.4932 28.7117C13.1833 29.2585 13.0219 29.8769 13.025 30.5054V31.406C13.025 31.6722 13.1309 31.9277 13.3192 32.1161C13.5076 32.3045 13.7632 32.4103 14.0296 32.4103C14.2993 32.4105 14.5585 32.3056 14.7525 32.1184C14.9464 31.9309 15.0598 31.6755 15.0688 31.406V30.6092C15.0645 30.3052 15.1387 30.0051 15.2843 29.7383C15.43 29.4712 15.6421 29.2464 15.9002 29.0855L16.1673 28.937C16.5574 28.7205 17.0409 28.8109 17.3747 29.107C17.8389 29.5189 18.363 29.8602 18.9305 30.1185C19.7305 30.4826 20.5984 30.6734 21.4774 30.6786C22.3527 30.6713 23.217 30.4829 24.0159 30.1253C24.5883 29.8691 25.1182 29.5301 25.589 29.1201C25.9179 28.8335 26.3889 28.7457 26.7732 28.9525L27.0199 29.0855C27.2867 29.2395 27.5078 29.4619 27.6599 29.7297C27.8122 29.9977 27.8901 30.3012 27.8859 30.6092V31.406C27.8859 31.6722 27.9917 31.9277 28.1801 32.1161C28.3685 32.3045 28.624 32.4103 28.8904 32.4103C29.0253 32.4148 29.1597 32.3924 29.2856 32.344C29.4116 32.2956 29.5263 32.2223 29.6233 32.1286C29.7204 32.0348 29.7975 31.9226 29.8501 31.7983C29.9027 31.6743 29.9299 31.5408 29.9297 31.406V30.5054C29.9259 29.8742 29.7578 29.2549 29.4419 28.7085C29.1261 28.1619 28.6733 27.707 28.1284 27.3883L27.8464 27.2149C27.4884 26.9946 27.3456 26.5506 27.4552 26.1447C27.567 25.7301 27.9262 25.4143 28.3556 25.4143H28.8904C29.0253 25.4188 29.1597 25.3964 29.2856 25.348C29.4116 25.2996 29.5263 25.2263 29.6233 25.1326C29.7204 25.0388 29.7975 24.9266 29.8501 24.8024C29.9027 24.6783 29.9299 24.5448 29.9297 24.41C29.9346 24.2721 29.9111 24.1348 29.8605 24.0066C29.81 23.8784 29.7335 23.762 29.6361 23.6645C29.5386 23.5669 29.422 23.4906 29.2938 23.44C29.1656 23.3895 29.0283 23.366 28.8904 23.3709H28.3556C27.9262 23.3709 27.567 23.0551 27.4552 22.6405C27.3456 22.2344 27.4884 21.7906 27.8464 21.5703L28.1284 21.3969C28.6758 21.0808 29.1303 20.6265 29.4465 20.0794C29.7627 19.5322 29.9293 18.9116 29.9297 18.2798V17.3793C29.9299 17.2444 29.9027 17.1109 29.8501 16.9867C29.7975 16.8626 29.7204 16.7503 29.6233 16.6565C29.5263 16.5628 29.4116 16.4896 29.2856 16.4412C29.1597 16.3928 29.0253 16.3703 28.8904 16.3749ZM21.4774 28.6006C20.6387 28.6075 19.8167 28.3645 19.1164 27.9028C18.4162 27.4413 17.8692 26.7817 17.545 26.0082C17.2209 25.2348 17.1343 24.3824 17.2962 23.5595C17.4582 22.7368 17.8614 21.9807 18.4545 21.3877C19.0477 20.7946 19.8038 20.3916 20.6269 20.2296C21.4498 20.0678 22.3024 20.1542 23.0761 20.4784C23.8497 20.8024 24.5093 21.3494 24.9712 22.0494C25.4329 22.7497 25.6758 23.5713 25.669 24.41C25.669 25.5214 25.2272 26.5873 24.4413 27.3732C23.6552 28.159 22.589 28.6006 21.4774 28.6006Z" fill="url(#gradient1)"/>
<path d="M42.9546 13.431V35.3541C42.9525 35.7898 42.8363 36.2173 42.6173 36.5939C42.3985 36.9707 42.0849 37.2835 41.7075 37.5013L22.7244 48.4802C22.3465 48.7026 21.9159 48.8198 21.4774 48.8198C21.0389 48.8198 20.6083 48.7026 20.2302 48.4802L1.24711 37.5013C0.869752 37.2835 0.556051 36.9707 0.337251 36.5939C0.118453 36.2173 0.00219182 35.7898 4.74327e-05 35.3541V29.9166L7.20532 34.0727L18.7753 40.757L20.2302 41.5881C20.6083 41.8105 21.0389 41.9277 21.4774 41.9277C21.9159 41.9277 22.3465 41.8105 22.7244 41.5881L35.7493 34.0727C36.1244 33.8522 36.4362 33.5388 36.6547 33.1626C36.8731 32.7865 36.9908 32.3603 36.9963 31.9254V16.8944C36.9967 16.4536 36.882 16.0203 36.6632 15.6376C36.4444 15.2548 36.1293 14.9359 35.7493 14.7125L22.7244 7.19698C22.3465 6.97467 21.9159 6.85746 21.4774 6.85746C21.0389 6.85746 20.6083 6.97467 20.2302 7.19698L7.20532 14.7125C6.82524 14.9359 6.5102 15.2548 6.29143 15.6376C6.07268 16.0203 5.95783 16.4536 5.95825 16.8944V27.1806L1.14319 24.3752C0.794045 24.1779 0.503988 23.8907 0.303012 23.5437C0.102038 23.1966 -0.00255579 22.8021 4.74327e-05 22.4012V13.431C0.00560211 12.9961 0.123299 12.5699 0.34176 12.1938C0.56022 11.8176 0.872054 11.5042 1.24711 11.2838L20.2302 0.339534C20.6083 0.117226 21.0389 0 21.4774 0C21.9159 0 22.3465 0.117226 22.7244 0.339534L41.7075 11.2838C42.0826 11.5042 42.3943 11.8176 42.6129 12.1938C42.8313 12.5699 42.9491 12.9961 42.9546 13.431Z" fill="url(#gradient2)"/>
<defs>
<linearGradient id="gradient1" x1="-34.3671" y1="15.7511" x2="71.6254" y2="33.0186" gradientUnits="userSpaceOnUse">
<stop offset="0.385798" stop-color="#5CE4FF"/>
<stop offset="0.85315" stop-color="#315BD7"/>
</linearGradient>
<linearGradient id="gradient2" x1="0.000794174" y1="24.3973" x2="42.9542" y2="24.3973" gradientUnits="userSpaceOnUse">
<stop stop-color="#306EF3"/>
<stop offset="1" stop-color="#3158D3"/>
</linearGradient>
</defs>
</svg>
